<svg xmlns="http://www.w3.org/2000/svg" xmlns:xlink="http://www.w3.org/1999/xlink"  viewBox="0 0 751.046 702.709">
  <defs>
    <linearGradient id="linear-gradient" x1="0.009" y1="0.652" x2="1.636" y2="0.253" gradientUnits="objectBoundingBox">
      <stop offset="0" stop-color="#19034d" stop-opacity="0.914"/>
      <stop offset="0.555" stop-color="#311573" stop-opacity="0"/>
    </linearGradient>
    <linearGradient id="linear-gradient-2" x1="0.136" y1="1.084" x2="0.58" y2="0.086" gradientUnits="objectBoundingBox">
      <stop offset="0" stop-color="#201b59" stop-opacity="0.914"/>
      <stop offset="0.555" stop-color="#fc0" stop-opacity="0"/>
    </linearGradient>
    <linearGradient id="linear-gradient-3" x1="0.122" y1="0.339" x2="0.816" y2="0.77" xlink:href="#linear-gradient-2"/>
    <linearGradient id="linear-gradient-4" x1="-0.556" y1="-1.922" x2="-1.63" y2="-0.878" gradientUnits="objectBoundingBox">
      <stop offset="0.265" stop-color="#201b59" stop-opacity="0.914"/>
      <stop offset="0.555" stop-color="#ff735f" stop-opacity="0"/>
    </linearGradient>
    <linearGradient id="linear-gradient-5" x1="0.822" y1="1.348" x2="0.247" y2="0.055" xlink:href="#linear-gradient-4"/>
    <linearGradient id="linear-gradient-6" x1="0.811" y1="0.646" x2="-0.035" y2="-0.005" gradientUnits="objectBoundingBox">
      <stop offset="0.004" stop-color="#fff"/>
      <stop offset="0.551" stop-color="#fff" stop-opacity="0.302"/>
    </linearGradient>
    <clipPath id="clip-path">
      <path id="Tracé_294" data-name="Tracé 294" d="M431.533,379.359c.519-3.679,1.781-6.972,4.674-8.664,4.127-2.416,9.633-.4,14.435-1.3,13.491-2.523,13.388-21.356,13.113-31.727q-.263-9.9-.887-19.783a10.969,10.969,0,0,0-1.158-5.061c-1.636-2.695-5.37-3.482-8.4-2.617-5.9,1.688-9.219,8.065-10.266,14.116s-.534,12.341-2.121,18.272a10.784,10.784,0,0,1-1.312,3.181,7.3,7.3,0,0,1-2.952,2.521,5.769,5.769,0,0,1-5.485-.078c-1.863-1.194-1.552-2.7-1.543-4.516a55.654,55.654,0,0,0-.557-6.614c-.572-4.958-1.068-9.927-1.535-14.9-.915-9.77-1.713-19.552-2.731-29.312-.467-4.478-.973-9.08-3.208-13.088-9.665-17.349-24.386-2.107-25.74,10.543-3.078,28.782,11.914,55.924,10.657,84.491a8.594,8.594,0,0,1-.664,3.536c-2.256,4.5-9.467,3.711-12.8,1.118-5.225-4.068-3.355-12.875-3.36-18.175-.006-4.325-1.39-9.213-5.573-11.239-4.745-2.3-10.937.458-13.64,4.7-3.49,5.472-3.1,14.843-2.578,20.933a25.685,25.685,0,0,0,4.007,12.589,15.849,15.849,0,0,0,11.719,6.938c2.79.168,5.973-.423,8.088,1.247,2.578,2.035,1.654,5.758,1.756,8.87.2,6.179,5.466,11.458,11.607,14.055s13.073,3.032,19.826,3.431c5.727-9.189,6.11-19.783,6.408-30.054C431.413,389.356,430.872,384.045,431.533,379.359Z" transform="translate(-367.563 -272)" fill="none"/>
    </clipPath>
  </defs>
  <g id="Illu404" transform="translate(-50.033 -54.637)">
    <path id="Rectangle_4" data-name="Rectangle 4" d="M23.023,0H207.859a23.023,23.023,0,0,1,23.023,23.023V102.78a0,0,0,0,1,0,0H23.023A23.023,23.023,0,0,1,0,79.757V23.023A23.023,23.023,0,0,1,23.023,0Z" transform="translate(132.354 359.354)" fill="none" stroke="#fff" stroke-miterlimit="10" stroke-width="2"/>
    <path id="Tracé_244" data-name="Tracé 244" d="M552.376,729.511c52.566-18.539,103.423-50.239,136.708-96.437,40.719-56.516,37.233-120.577,45.565-186.6,3.385-26.833,21.352-42.26,32.043-66.057,22.554-50.2,14.586-125.742-32.842-159.841-29.213-21-57.435-23.29-73.161-59.811-8.7-20.193-13.783-42.422-27.287-59.773-19.554-25.122-52.745-35-84.191-39.954-36.573-5.765-72.293-4.486-108.973-5.573-39.1-1.16-78.756-.1-116.714,10.277C272.009,79.828,215.4,116.709,206.4,172.866c-3.854,24.077,1.194,49.764-7.951,72.369-13.76,34.011-50.416,45.548-77.715,65.641C91.43,332.45,72.367,366.124,64,401.129,49.746,460.778,60.255,526.945,88,581.1c29.7,57.974,77.932,107.3,136.439,136.3,45.828,22.721,109.14,29.417,160.823,32.6C441.737,753.489,499.232,748.252,552.376,729.511Z" transform="translate(6.005 0)" fill="#addfff"/>
    <path id="Tracé_245" data-name="Tracé 245" d="M640.636,416.422c-.328-85.208-23.9-167.061-93.231-221.965-85.549-67.746-205.141-66.865-292.589-3.658-57.185,41.333-97.286,103.526-119.774,170.406s-28.288,138.422-25.893,208.942l520.637,1.627q3.264-35.9,6.526-71.8C638.807,472.508,640.743,444.439,640.636,416.422Z" transform="translate(52.261 80.212)" fill="#69a4c9"/>
    <path id="Rectangle_5" data-name="Rectangle 5" d="M23.023,0H207.859a23.023,23.023,0,0,1,23.023,23.023V102.78a0,0,0,0,1,0,0H23.023A23.023,23.023,0,0,1,0,79.757V23.023A23.023,23.023,0,0,1,23.023,0Z" transform="translate(160.961 349.819)" fill="none" stroke="#fff" stroke-miterlimit="10" stroke-width="1" opacity="0.75"/>
    <path id="Rectangle_6" data-name="Rectangle 6" d="M30.451,0H285.343a30.451,30.451,0,0,1,30.451,30.451V135.939a0,0,0,0,1,0,0H30.451A30.451,30.451,0,0,1,0,105.488V30.451A30.451,30.451,0,0,1,30.451,0Z" transform="translate(264.643 147.179)" fill="none" stroke="#fff" stroke-miterlimit="10" stroke-width="1" opacity="0.75"/>
    <g id="Groupe_46" data-name="Groupe 46" transform="translate(102.082 447.785)">
      <path id="Tracé_246" data-name="Tracé 246" d="M225.752,449.926a21.651,21.651,0,0,0-2.207-1.652c-2.7-2.14-3.248-5.954-3.53-9.387-3.448-41.972,2.838-84.2.852-126.266-.475-10.039-8.622-5.105-15.276-3.822-.986.191-14.019,2.622-13.874,1.144-1.171,11.95-2.7,24.751-10.609,33.781-5.481,6.255-13.314,9.824-20.192,14.5-25.851,17.563-40.951,51.366-44.712,81.852-.059-.673-.132-1.348-.187-2.022q-.761-9.117-1.215-18.257-.95-19.189-.536-38.413c.2-9.534,1.358-19.962-4.383-28.235-4.876-7.028-10.3-7.545-17.259-8.153-1.865-3.8-1.55-11.294-1.528-14.67.036-5.439.95-11.651,4.917-15.8,6.528-6.831,16.672-2.659,24.918-4.724,18.739-4.7,12.061-28.576,10.811-42.359-.769-8.487-14.126-8.567-13.35,0,.626,6.908,1.987,14.1,1.905,21.032-.053,4.447.065,7.323-4.671,8.7-1.9.553-4.5.01-6.444-.008-9.732-.09-18.049,2.092-24.316,10-6.77,8.542-7.8,19.575-6.675,30.069.851,7.951,1.182,19.1,10.888,20.774,9.007,1.558,11.834,3.37,12.064,13.039.154,6.477-.322,13-.351,19.483q-.1,21.956,1.579,43.873c.641,8.34-.778,23.54,6.3,29.745a9.847,9.847,0,0,0,11.235,1.581c11.1.608,37.351-.963,40.164-.963h33.867c5.681,0,15.682,1.936,21.1-.853,2.95-1.518,8.2-4.291,10.323-6.78C227.084,455.127,227.593,451.82,225.752,449.926Z" transform="translate(-77.802 -260.959)" fill="#3b1c99"/>
      <path id="Tracé_247" data-name="Tracé 247" d="M168.394,302.4q.074-5.144-.277-10.277a19.162,19.162,0,0,0-.21-1.981,7.046,7.046,0,0,0-.641-2.046c-2.462-4.8-11.225-.647-14.677,1.045a67.322,67.322,0,0,0-10.693,6.85c-1.955,1.47-4.165,3.238-5.222,5.513-1.123,2.42-.473,6.3-.237,8.9a10.528,10.528,0,0,0,1.709,5.571c1.2,1.554,3.524,2.4,5.22,1.36a17.955,17.955,0,0,0,1.783,6.032,6.313,6.313,0,0,0,3.747,2.931c1.076.311,1.018.118,1.4,1.242.011.032.025.063.034.1a9.818,9.818,0,0,0,1.022,2.475c.027.053.048.109.074.162a5.034,5.034,0,0,0,1.079,1.5,3.134,3.134,0,0,0,.883.534l.032.019.017.01a4.648,4.648,0,0,0,2.1.713,5.149,5.149,0,0,0,5.025-2.115c1.156-1.863.9-4.007.786-6.086a3.9,3.9,0,0,0,3.492-2.4c.711-1.61.549-3.644.576-5.342.032-2.052-.063-4.1-.219-6.141C169.222,311.39,168.352,305.154,168.394,302.4Z" transform="translate(-24.977 -238.455)" fill="#ff8303"/>
      <path id="Tracé_248" data-name="Tracé 248" d="M139.65,330.352c6.751,4.053,11.17,12.221,10.363,20.128-.839,8.254-7.367,14.843-13.407,19.9-6.322,5.294-13.342,10.188-17.393,17.368,4.142-.524,8.313-.845,12.488-.957,3.574-.1,7.707.227,9.795,3.13,2.184,3.038.975,7.251,1.55,10.949a.975.975,0,0,0,1.261-.256c.275.959.193,1.018,1.186.944,3.337-.25,6.171-2.763,7.712-5.735s2.012-6.364,2.409-9.686a195.587,195.587,0,0,0,1.413-35.875c-.246-3.782-.692-7.693-2.636-10.947C151.144,333.884,145.983,329.842,139.65,330.352Z" transform="translate(-40.237 -198.129)" fill="url(#linear-gradient)"/>
      <path id="Tracé_249" data-name="Tracé 249" d="M121.413,282.423c-.164-.6-.332-1.194-.507-1.789.084.284,1.615.854,1.911,1.013q1.027.555,2.044,1.118,2.037,1.133,4.045,2.313t3.986,2.414c.593.37.9.7,1.581.6a14.8,14.8,0,0,0,2.859-1.1c1.15-.45,2.3-.916,3.444-1.371q3.45-1.365,6.9-2.721c4.545-1.795,9.084-3.614,13.569-5.554,1.737-.751,5.662-1.755,6.335-3.656a7.476,7.476,0,0,0,.286-2.134c.193-3.648.894-10.55.894-10.55s2.727,2.327,3.156,2.836q1.49,1.768,2.853,3.641a71.959,71.959,0,0,1,4.978,7.737,118.7,118.7,0,0,1,8,17.755c1.749,4.928,2.63,9.854-.664,14.3-3.059,4.133-7.916,6.736-12.391,9.044-9.1,4.693-18.852,9.951-29.181,10.934a13.806,13.806,0,0,1-7.623-1,13.361,13.361,0,0,1-5.308-5.843C126.223,308.519,124.913,295.2,121.413,282.423Z" transform="translate(-38.701 -261)" fill="#3b1c99"/>
      <path id="Tracé_250" data-name="Tracé 250" d="M155.557,289.294c-3.007-1-6.181-1.2-9.209-2.069.206-.317.383-.658.545-.944q.684-1.2,1.322-2.428a.969.969,0,0,0-.57-1.4c-1-.374-2.664.54-3.6.872a22.791,22.791,0,0,0-4.207,1.928A.966.966,0,0,0,140.06,287l3.829,1.209a90.386,90.386,0,0,0-3.351,9.879.954.954,0,0,0,1.838.507,90.679,90.679,0,0,1,3.24-9.589c3.093.925,6.351,1.11,9.433,2.13C156.217,291.519,156.719,289.677,155.557,289.294Z" transform="translate(-21.946 -241.62)" fill="#19034d"/>
      <path id="Tracé_251" data-name="Tracé 251" d="M135.331,281.852a1.731,1.731,0,0,0-1.228,0,.749.749,0,0,0-.683.318,2.372,2.372,0,0,0-.395.788,2.543,2.543,0,0,0-.153.454.9.9,0,0,0,.181.8,1.792,1.792,0,0,0,.49.713,1.846,1.846,0,0,0,2.735-.488A1.759,1.759,0,0,0,135.331,281.852Z" transform="translate(-27.87 -242.186)" fill="#19034d"/>
      <path id="Tracé_252" data-name="Tracé 252" d="M150.331,275.852a1.731,1.731,0,0,0-1.228,0,.749.749,0,0,0-.683.318,2.372,2.372,0,0,0-.395.788,2.539,2.539,0,0,0-.153.454.9.9,0,0,0,.181.8,1.792,1.792,0,0,0,.49.713,1.846,1.846,0,0,0,2.735-.488A1.759,1.759,0,0,0,150.331,275.852Z" transform="translate(-14.264 -247.629)" fill="#19034d"/>
    </g>
    <path id="Rectangle_7" data-name="Rectangle 7" d="M24.4,0H157.668a24.4,24.4,0,0,1,24.4,24.4V68.672a24.4,24.4,0,0,1-24.4,24.4H0a0,0,0,0,1,0,0V24.4A24.4,24.4,0,0,1,24.4,0Z" transform="translate(530.088 295.628)" fill="none" stroke="#fff" stroke-miterlimit="10" stroke-width="1" opacity="0.75"/>
    <g id="Groupe_48" data-name="Groupe 48" transform="translate(283.652 340.927)">
      <path id="Tracé_253" data-name="Tracé 253" d="M176.877,396.211c-3.625,12.444-6.749,26.865.595,37.545,8.845,12.862,29.148,12.715,41.9,3.707s19.66-24,25.563-38.447c9.948-24.348,18.711-49.425,22.17-75.5,2.022-15.247.263-34.172-13.581-40.873-21.287-10.306-39.443,6.122-46.335,24.133C195.929,336.2,185.688,365.962,176.877,396.211Z" transform="translate(-173.008 -137.4)" fill="#ff735f"/>
      <path id="Tracé_254" data-name="Tracé 254" d="M229.033,273.782a130.759,130.759,0,0,0-14.689,18.905c-6,9.343-10.033,19.338-14.738,29.3-1.65,3.494-15.5,33.867-12.406,36.079,17.406,12.442,34.509,26.034,54.448,33.68.671.257-3.135,14.872-3.486,16.27q-2.034,8.107-3.686,16.3c-2.186,10.844-3.894,21.861-5.8,32.787q-1.593,9.123-3.111,18.261c-.454,2.729,86.209,8.5,94.055,8.618,22.925.338,58.955,6.772,72.873-16.632,3.3-5.548,4.949-11.9,6.416-18.186a449.087,449.087,0,0,0,11.385-112.525c-.208-8.87-.675-17.8-2.832-26.406-3.139-12.534-9.715-23.776-16.592-34.584-6.271-9.856-16.149-15.3-26.629-20.316-31.553-15.1-69.53-19.958-101.54-5.853A104.118,104.118,0,0,0,229.033,273.782Z" transform="translate(-160.541 -172.195)" fill="#f5ba00"/>
      <path id="Tracé_255" data-name="Tracé 255" d="M293.378,327.821q-1.3,3-2.6,6c-3.326,7.688-11.693,21-11.693,29.429-3.908,12.221-5.773,25.321-3.5,37.946a102.815,102.815,0,0,0,4.127,14.824c2.088,6.128,4.392,12.3,8.279,17.473,3.5,4.659,11.843,12.013,18.3,9.5,6.74-2.622,11.773-14.856,14.343-20.9,15.289-35.919,21.346-75.377,25.073-114.013a26.517,26.517,0,0,0-.071-8.111c-.851-3.959-3.406-7.3-5.939-10.462-3.349-4.175-7.23-8.55-12.5-9.486-5.05-.9-10.211,1.728-13.68,5.506s-5.569,8.582-7.606,13.289Q299.653,313.319,293.378,327.821Z" transform="translate(-80.847 -137.048)" fill="#ff735f"/>
      <path id="Tracé_256" data-name="Tracé 256" d="M319.978,355.2c-2.946-.83-44.054-10.811-44.146-5.748q.458-33.484,3.7-66.854c.688-7.079,1.5-14.259,4.188-20.847s7.541-12.606,14.191-15.133c4.909-1.865,10.39-1.692,15.52-.576a45.539,45.539,0,0,1,33.767,32.8c1.707,6.879,1.745,14.05,1.68,21.137-.195,21.062-1.753,42.046-3,63.007C337.047,362.794,328.415,357.57,319.978,355.2Z" transform="translate(-79.735 -168.47)" fill="#f5ba00"/>
      <path id="Tracé_257" data-name="Tracé 257" d="M331.941,253.971a27.944,27.944,0,0,1,1.051,5.838c.86,13.394-7.932,24.586-16.771,33.634-3.461,3.543-8.344,5.992-11.477,9.679-3.574,4.205-3.412,11.149-9.625,13.022a7.569,7.569,0,0,1-7.634-2.3c-2.256-2.561-2.2-5.33-1.07-8.372,1.337-3.608,2.529-8.107,4.674-11.317,1.718-2.571,5.178-4.281,7.75-5.807a21.874,21.874,0,0,0,10.15-14.969c1.615-11.271-.021-23.98,3.9-34.749a12.064,12.064,0,0,1,3.078-5.021,5.743,5.743,0,0,1,5.508-1.369c2.756.955,3.839,4.175,4.8,6.929C328.013,244.14,330.517,248.942,331.941,253.971Z" transform="translate(-70.827 -180.459)" fill="#db6352"/>
      <path id="Tracé_258" data-name="Tracé 258" d="M331.175,371.983c1.283,24.085.986,48.624-5.565,72.013-1.953,6.976-5.182,16.979-11.942,20.875-7.627,4.4-19.594.851-26.673-3.2-4.676-2.679-9.156-5.973-12.112-10.48-4.669-7.117-4.924-16.2-4.379-24.693,1.463-22.826,7.125-44.119,11.54-66.368q7.223-36.379,16.9-72.215c2.754-10.2,6.3-17.79,14.828-24.213,6.08-4.581,16.279-10.64,16.842,1.268C332.3,300.556,329.273,336.254,331.175,371.983Z" transform="translate(-84.755 -156.84)" fill="#db6352"/>
      <path id="Tracé_259" data-name="Tracé 259" d="M252.674,290.75a14.226,14.226,0,0,0-1.7,4.034,16.7,16.7,0,0,0,.019,5.611c1.745,13.928,4.648,27.71,19.584,32.064,9.907,2.887,22.136,1.873,31.2-3.2a32.941,32.941,0,0,0,8.067-5.838,13.838,13.838,0,0,0,4.058-8.893c10.031,2.2,20.4-8.01,25.624-15.345,11.969-16.807,15.936-37.889,14.116-58.2-.448-4.989-1.217-10.209-4.224-14.214-2.1-2.8-5.111-4.747-8.058-6.631-13.725-8.782-28.345-9.261-43.341-2.33-13.624,6.3-23.078,19.767-29.473,32.848-2.674,5.47-3.145,12.682-5.288,18.541a112.342,112.342,0,0,1-9.5,19.746C253.4,289.543,253.025,290.142,252.674,290.75Z" transform="translate(-102.499 -197.65)" fill="#ff735f"/>
      <path id="Tracé_260" data-name="Tracé 260" d="M267.615,227.479c3.114-6.9,7.592-13.277,13.256-17.208,10.308-7.154,25.224-5.819,36.828-3.219,6.681,1.5,13.367,4.411,20.315,4.331,6.261-.074,12.745-6.32,18.814-4.217a8.543,8.543,0,0,1,5.435,6.1c1.015,4.566-1.821,8.973-4.016,13.1-1.737,3.265-3.158,6.736-5.412,9.669-2.954,3.839-7.581,7.011-12.482,7.575a22.689,22.689,0,0,1-4.955-.156c-9.852-1.032-18.125-3.776-25.668,4.018-5.132,5.3-7.689,12.555-11.464,18.77a11.192,11.192,0,0,1-3.475,3.955c-2,1.217-4.486,1.2-6.768,1.73-9.782,2.269-16.214,18.665-26.553,15.137-8.86-3.023-6.843-11.073-3.343-17.444,4.356-7.93,3.526-17.553,4.84-26.5A60.03,60.03,0,0,1,267.615,227.479Z" transform="translate(-98.496 -204.969)" fill="#19034d"/>
      <path id="Tracé_261" data-name="Tracé 261" d="M265.257,238.883a24.319,24.319,0,0,0-4.224,10.371,19.694,19.694,0,0,0,.034,9.621c.967,3.093,3.456,5.883,6.656,6.4a8.814,8.814,0,0,0,7.007-2.308c4.562-3.984,9.917-16.23,8.614-22.473C281.481,231.549,269.752,233.11,265.257,238.883Z" transform="translate(-93.689 -178.481)" fill="#ff735f"/>
      <path id="Tracé_262" data-name="Tracé 262" d="M271.374,238.362a10.2,10.2,0,0,0-5.628,5.493,30.251,30.251,0,0,0-2.094,7.775" transform="translate(-90.784 -174.677)" fill="none" stroke="#19034d" stroke-miterlimit="10" stroke-width="1"/>
      <path id="Tracé_263" data-name="Tracé 263" d="M303.743,240.159a2.232,2.232,0,1,1-2.676-1.674A2.232,2.232,0,0,1,303.743,240.159Z" transform="translate(-58.415 -174.619)" fill="#19034d"/>
      <path id="Tracé_264" data-name="Tracé 264" d="M290.63,241.238a2.232,2.232,0,1,1-2.569-1.837A2.233,2.233,0,0,1,290.63,241.238Z" transform="translate(-70.334 -173.762)" fill="#19034d"/>
      <path id="Tracé_265" data-name="Tracé 265" d="M272.645,336.535c-.976,6.217-1.739,12.461-2.142,18.743-.545,8.494-.29,17.576,4.379,24.693,2.956,4.507,7.436,7.8,12.112,10.48,7.079,4.055,19.046,7.6,26.673,3.2,6.761-3.9,9.989-13.9,11.942-20.875a171.1,171.1,0,0,0,5.746-36.245Z" transform="translate(-84.755 -85.623)" fill="url(#linear-gradient-2)"/>
      <path id="Tracé_266" data-name="Tracé 266" d="M257.418,331.264l-10.424-29.717c.257.732-1.863,4.045-2.222,4.833q-1.173,2.569-2.336,5.145c-1.6,3.53-3.2,7.062-4.846,10.575-3.107,6.648-6.17,13.525-10,19.756a27.575,27.575,0,0,1-8.38-4.512c-1.036,6.028-2.92,11.673-4.127,17.669-.624,3.1-1.192,6.219-1.766,9.332-.292,1.581-.584,3.162-.885,4.741-.122.641-.357,4.024-.858,4.318a201.263,201.263,0,0,0,44.142-34.967,7.287,7.287,0,0,0,2.317-3.791A7.376,7.376,0,0,0,257.418,331.264Z" transform="translate(-138.024 -117.361)" fill="url(#linear-gradient-3)"/>
      <path id="Tracé_267" data-name="Tracé 267" d="M307.29,233.011a12.638,12.638,0,0,0-8.74,2.025,2.763,2.763,0,0,0-1.087,3.639,2.7,2.7,0,0,0,3.641,1.087,8.079,8.079,0,0,1,5.958-1.383,2.706,2.706,0,0,0,2.8-2.571A2.744,2.744,0,0,0,307.29,233.011Z" transform="translate(-60.401 -179.637)" fill="#19034d"/>
      <path id="Tracé_268" data-name="Tracé 268" d="M297.483,235.652c-3.732-1.72-7.731-.961-11.54.078-2.927.8-2.22,5.527.748,4.716s6.089-1.711,9.019-.361C298.506,241.374,300.266,236.934,297.483,235.652Z" transform="translate(-72.259 -178.059)" fill="#19034d"/>
      <path id="Tracé_269" data-name="Tracé 269" d="M273.9,261.881q-.332,7.475-.553,14.956-.109,3.9-.177,7.794c-.008.473-.128,1.356-.164,2.271,3.029-.748,6.15-1.264,9.013-2.573,4.062-1.854,7.985-4.375,10.033-8.525a27.4,27.4,0,0,0,1.732-5.031C286.934,269.376,279.053,266.759,273.9,261.881Z" transform="translate(-82.301 -153.343)" fill="url(#linear-gradient-4)"/>
      <path id="Tracé_270" data-name="Tracé 270" d="M311.939,393.981c25.826,3.08,54.3,6.429,79.138-.9-4.032-5.744-8.1-11.536-13.237-16.323s-11.477-8.553-18.442-9.429a45.191,45.191,0,0,0-11.065.338c-6.429.784-14.771,4.127-21.1,3.606-5.386-.443-12.411-5.058-17.505-7.073-34.578-13.684-75.592-32.312-113.389-22.372-19.117,5.027-30.613,20.988-17.437,38.966,7.36,10.041,19.266,8.166,30.867,8.361,31.317.524,62.736.271,93.9,3.85Q307.75,393.476,311.939,393.981Z" transform="translate(-172.797 -83.367)" fill="#ff735f"/>
      <g id="Groupe_47" data-name="Groupe 47" transform="translate(215.294 81.371)">
        <path id="Tracé_271" data-name="Tracé 271" d="M287.746,263.164l-1.848-.477a25.614,25.614,0,0,1,4.3-9.522,13.724,13.724,0,0,1,9.1-5.47,8.043,8.043,0,0,1,3.28.259,8.317,8.317,0,0,1,4.808,4.548l-1.724.812a6.43,6.43,0,0,0-3.652-3.542,6.164,6.164,0,0,0-2.5-.181,11.81,11.81,0,0,0-7.794,4.739A23.754,23.754,0,0,0,287.746,263.164Z" transform="translate(-285.898 -247.636)" fill="#19034d"/>
      </g>
      <path id="Tracé_272" data-name="Tracé 272" d="M225.67,339.453c-.259-.435-.513-.872-.765-1.312-1.8-2.948-3.49-5.962-5.105-9.022a55.343,55.343,0,0,1-7.533,6.6,64.95,64.95,0,0,0-9.885,8.6c-1.859,1.928-3.644,3.925-5.412,5.937q.7,1.628,1.375,3.294c.223.549.467,1.087.7,1.629q1.8-.607,3.624-1.139c6.145-1.781,14.231-4.213,21.049-3.238.359-3.728,1.812-7.272,2.111-11C225.777,339.683,225.724,339.567,225.67,339.453Z" transform="translate(-151.272 -92.351)" fill="url(#linear-gradient-5)"/>
      <path id="Tracé_273" data-name="Tracé 273" d="M292.463,259.771a3.985,3.985,0,0,0-3.219,1.728,1.291,1.291,0,0,0,.168,1.493.99.99,0,0,0,.759.791,3.281,3.281,0,0,0,3.391-1.409A1.516,1.516,0,0,0,292.463,259.771Z" transform="translate(-67.716 -155.257)" fill="#db6352"/>
      <path id="Tracé_274" data-name="Tracé 274" d="M294.337,232.735a15.853,15.853,0,0,0-4.278-1.077c-1.217-.139-1.207,1.768,0,1.907a14.125,14.125,0,0,1,3.77,1.011C294.962,235.043,295.456,233.2,294.337,232.735Z" transform="translate(-67.654 -180.766)" fill="#db6352"/>
      <path id="Tracé_275" data-name="Tracé 275" d="M299.828,230.793q-1.5.463-3,.929c-1.169.36-.671,2.2.505,1.838l3-.929C301.5,232.269,301.006,230.428,299.828,230.793Z" transform="translate(-61.294 -181.587)" fill="#db6352"/>
    </g>
    <g id="Groupe_50" data-name="Groupe 50" transform="translate(245.572 124.294)">
      <path id="Rectangle_8" data-name="Rectangle 8" d="M30.451,0H285.343a30.451,30.451,0,0,1,30.451,30.451V135.939a0,0,0,0,1,0,0H30.451A30.451,30.451,0,0,1,0,105.488V30.451A30.451,30.451,0,0,1,30.451,0Z" transform="translate(0 0)" fill="#ff8303"/>
      <g id="Groupe_49" data-name="Groupe 49" transform="translate(74.053 37.42)">
        <path id="Tracé_276" data-name="Tracé 276" d="M232.876,154.03h-5.822v10.232h-14.1V154.03H191.871V143.542L213.854,111.4h13.2v31.965h5.822ZM212.95,143.361v-6.147q0-1.736.128-4.682a29.944,29.944,0,0,1,.2-3.093h-.4a38.475,38.475,0,0,1-2.784,5.208l-5.859,8.714Z" transform="translate(-191.871 -110.637)" fill="#fff"/>
        <path id="Tracé_277" data-name="Tracé 277" d="M261.274,138.262q0,14.032-4.7,20.557t-14.391,6.528q-9.472,0-14.282-6.818t-4.81-20.267q0-14.1,4.7-20.683T242.182,111q9.437,0,14.265,6.852T261.274,138.262Zm-23.974,0q0,8.968,1.121,12.331t3.761,3.362q2.678,0,3.778-3.471t1.1-12.223q0-8.785-1.121-12.312t-3.761-3.524q-2.64,0-3.761,3.4T237.3,138.262Z" transform="translate(-163.552 -110.998)" fill="#fff"/>
        <path id="Tracé_278" data-name="Tracé 278" d="M293.91,154.03h-5.82v10.232h-14.1V154.03H252.907V143.542L274.892,111.4h13.2v31.965h5.82Zm-19.922-10.668v-6.147q0-1.736.126-4.682a29.966,29.966,0,0,1,.2-3.093h-.4a38.261,38.261,0,0,1-2.784,5.208l-5.857,8.714Z" transform="translate(-136.504 -110.637)" fill="#fff"/>
      </g>
    </g>
    <g id="Groupe_52" data-name="Groupe 52" transform="translate(183.846 292.605)">
      <path id="Rectangle_9" data-name="Rectangle 9" d="M23.023,0H207.859a23.023,23.023,0,0,1,23.023,23.023V102.78a0,0,0,0,1,0,0H23.023A23.023,23.023,0,0,1,0,79.757V23.023A23.023,23.023,0,0,1,23.023,0Z" fill="#fff"/>
      <g id="Groupe_51" data-name="Groupe 51" transform="translate(62.592 42.211)">
        <path id="Tracé_279" data-name="Tracé 279" d="M163.6,222.169a10.159,10.159,0,0,1-7.43-2.624q-2.675-2.623-2.676-7.428,0-4.946,2.474-7.649a8.812,8.812,0,0,1,6.839-2.7,8.672,8.672,0,0,1,6.5,2.378,8.989,8.989,0,0,1,2.323,6.566v2.605H158.936a5.154,5.154,0,0,0,1.356,3.574,4.765,4.765,0,0,0,3.555,1.285,14.793,14.793,0,0,0,3.362-.37,16.919,16.919,0,0,0,3.309-1.181v4.156a12.6,12.6,0,0,1-3.009,1.047A18.975,18.975,0,0,1,163.6,222.169Zm-.757-16.582a3.406,3.406,0,0,0-2.676,1.081,5.008,5.008,0,0,0-1.11,3.072h7.535a4.476,4.476,0,0,0-1.039-3.072A3.514,3.514,0,0,0,162.844,205.587Z" transform="translate(-153.495 -201.765)" fill="#ff735f"/>
        <path id="Tracé_280" data-name="Tracé 280" d="M178.168,201.765a8.562,8.562,0,0,1,1.814.16l-.4,5.033a6.206,6.206,0,0,0-1.585-.175,5.7,5.7,0,0,0-4.007,1.32,4.779,4.779,0,0,0-1.434,3.7v10.016h-5.369V202.135h4.066l.793,3.311h.263a7.406,7.406,0,0,1,2.474-2.668A6.1,6.1,0,0,1,178.168,201.765Z" transform="translate(-141.078 -201.765)" fill="#ff735f"/>
        <path id="Tracé_281" data-name="Tracé 281" d="M188.643,201.765a8.562,8.562,0,0,1,1.814.16l-.4,5.033a6.206,6.206,0,0,0-1.585-.175,5.7,5.7,0,0,0-4,1.32,4.772,4.772,0,0,0-1.434,3.7v10.016h-5.37V202.135h4.066l.793,3.311h.263a7.406,7.406,0,0,1,2.474-2.668A6.1,6.1,0,0,1,188.643,201.765Z" transform="translate(-131.576 -201.765)" fill="#ff735f"/>
        <path id="Tracé_282" data-name="Tracé 282" d="M206.589,211.941a10.572,10.572,0,0,1-2.535,7.516,9.2,9.2,0,0,1-7.06,2.712,9.875,9.875,0,0,1-5-1.242,8.257,8.257,0,0,1-3.326-3.564,11.961,11.961,0,0,1-1.163-5.422q0-4.823,2.519-7.5a9.243,9.243,0,0,1,7.075-2.676,9.93,9.93,0,0,1,5,1.234,8.2,8.2,0,0,1,3.326,3.538A11.848,11.848,0,0,1,206.589,211.941Zm-13.609,0a8.266,8.266,0,0,0,.959,4.419,3.434,3.434,0,0,0,3.126,1.5,3.376,3.376,0,0,0,3.09-1.488,8.383,8.383,0,0,0,.942-4.426,8.137,8.137,0,0,0-.952-4.384,4.04,4.04,0,0,0-6.213-.008A8.1,8.1,0,0,0,192.98,211.941Z" transform="translate(-122.644 -201.765)" fill="#ff735f"/>
        <path id="Tracé_283" data-name="Tracé 283" d="M212.713,201.765a8.562,8.562,0,0,1,1.814.16l-.4,5.033a6.206,6.206,0,0,0-1.585-.175,5.7,5.7,0,0,0-4,1.32,4.772,4.772,0,0,0-1.434,3.7v10.016h-5.37V202.135H205.8l.791,3.311h.265a7.384,7.384,0,0,1,2.472-2.668A6.1,6.1,0,0,1,212.713,201.765Z" transform="translate(-109.742 -201.765)" fill="#ff735f"/>
      </g>
    </g>
    <path id="Tracé_284" data-name="Tracé 284" d="M434.037,452.511l-49.392-184.3a60.36,60.36,0,0,0-56.99-44.72h0c-50.939-1.108-80.246,57.492-48.811,97.589,51.641,65.874,108.742,139.877,108.742,139.877Z" transform="translate(194.873 152.746)" opacity="0.49" fill="url(#linear-gradient-6)"/>
    <g id="Groupe_55" data-name="Groupe 55" transform="translate(564.416 272.723)">
      <path id="Rectangle_10" data-name="Rectangle 10" d="M18.883,0H153.1a18.883,18.883,0,0,1,18.883,18.883V65.414A18.883,18.883,0,0,1,153.1,84.3H0a0,0,0,0,1,0,0V18.883A18.883,18.883,0,0,1,18.883,0Z" fill="#f5ba00"/>
      <g id="Groupe_54" data-name="Groupe 54" transform="translate(56.085 37.718)">
        <g id="Groupe_53" data-name="Groupe 53">
          <circle id="Ellipse_2" data-name="Ellipse 2" cx="4.431" cy="4.431" r="4.431" fill="#fff"/>
          <path id="Tracé_285" data-name="Tracé 285" d="M371.855,193.414a4.43,4.43,0,1,1-4.43-4.43A4.43,4.43,0,0,1,371.855,193.414Z" transform="translate(-337.517 -188.984)" fill="#fff"/>
          <circle id="Ellipse_3" data-name="Ellipse 3" cx="4.431" cy="4.431" r="4.431" transform="translate(50.954)" fill="#fff"/>
        </g>
      </g>
    </g>
    <g id="Groupe_57" data-name="Groupe 57" transform="translate(228 587.467)">
      <g id="Groupe_56" data-name="Groupe 56" transform="translate(72.72 9.135)">
        <path id="Tracé_286" data-name="Tracé 286" d="M189.281,369.269a36.215,36.215,0,0,1-7.323-.715l.839-4c8.342,1.745,21.955-.057,25.815-8a9.05,9.05,0,0,0-.057-7.882,9.508,9.508,0,0,0-5.948-4.959c-5.176-1.577-11.9.208-16.273,2.672l-2.006-3.559c4.751-2.681,12.7-5.075,19.468-3.021a13.619,13.619,0,0,1,8.407,7.028,13.207,13.207,0,0,1,.084,11.506C208.4,366.341,198.151,369.269,189.281,369.269Z" transform="translate(-181.958 -339.032)" fill="#bf0a40"/>
      </g>
      <path id="Rectangle_11" data-name="Rectangle 11" d="M0,0H66.376a0,0,0,0,1,0,0V39.41A13.691,13.691,0,0,1,52.685,53.1H13.691A13.691,13.691,0,0,1,0,39.41V0A0,0,0,0,1,0,0Z" transform="translate(20.424)" fill="#bf0a40"/>
      <path id="Tracé_287" data-name="Tracé 287" d="M249.008,367.143H146.89a3.063,3.063,0,0,1-3.063-3.063h0a3.064,3.064,0,0,1,3.063-3.065H249.008a3.064,3.064,0,0,1,3.063,3.065h0A3.063,3.063,0,0,1,249.008,367.143Z" transform="translate(-143.827 -309.957)" fill="#fff"/>
    </g>
    <g id="Groupe_62" data-name="Groupe 62" transform="translate(654.69 468.763)">
      <g id="Groupe_61" data-name="Groupe 61">
        <g id="Groupe_60" data-name="Groupe 60" clip-path="url(#clip-path)">
          <g id="Groupe_59" data-name="Groupe 59">
            <g id="Groupe_58" data-name="Groupe 58">
              <path id="Tracé_288" data-name="Tracé 288" d="M431.533,379.359c.519-3.679,1.781-6.972,4.674-8.664,4.127-2.416,9.633-.4,14.435-1.3,13.491-2.523,13.388-21.356,13.113-31.727q-.263-9.9-.887-19.783a10.969,10.969,0,0,0-1.158-5.061c-1.636-2.695-5.37-3.482-8.4-2.617-5.9,1.688-9.219,8.065-10.266,14.116s-.534,12.341-2.121,18.272a10.784,10.784,0,0,1-1.312,3.181,7.3,7.3,0,0,1-2.952,2.521,5.769,5.769,0,0,1-5.485-.078c-1.863-1.194-1.552-2.7-1.543-4.516a55.654,55.654,0,0,0-.557-6.614c-.572-4.958-1.068-9.927-1.535-14.9-.915-9.77-1.713-19.552-2.731-29.312-.467-4.478-.973-9.08-3.208-13.088-9.665-17.349-24.386-2.107-25.74,10.543-3.078,28.782,11.914,55.924,10.657,84.491a8.594,8.594,0,0,1-.664,3.536c-2.256,4.5-9.467,3.711-12.8,1.118-5.225-4.068-3.355-12.875-3.36-18.175-.006-4.325-1.39-9.213-5.573-11.239-4.745-2.3-10.937.458-13.64,4.7-3.49,5.472-3.1,14.843-2.578,20.933a25.685,25.685,0,0,0,4.007,12.589,15.849,15.849,0,0,0,11.719,6.938c2.79.168,5.973-.423,8.088,1.247,2.578,2.035,1.654,5.758,1.756,8.87.2,6.179,5.466,11.458,11.607,14.055s13.073,3.032,19.826,3.431c5.727-9.189,6.11-19.783,6.408-30.054C431.413,389.356,430.872,384.045,431.533,379.359Z" transform="translate(-367.563 -272)" fill="#228f4e"/>
              <path id="Tracé_289" data-name="Tracé 289" d="M391.574,272.546c6.877,47.735,12.806,96.323,4.339,143.842" transform="translate(-345.782 -271.505)" fill="none" stroke="#19034d" stroke-miterlimit="10" stroke-width="1"/>
              <path id="Tracé_290" data-name="Tracé 290" d="M389.943,272.377c-1.943,8.889-3.892,17.853-3.85,26.917.084,17.282,7.365,33.811,10.226,50.9,3.2,19.085.83,38.539-1.541,57.725" transform="translate(-350.755 -271.658)" fill="none" stroke="#19034d" stroke-miterlimit="10" stroke-width="1"/>
              <path id="Tracé_291" data-name="Tracé 291" d="M395.931,337.7c8.309-1.186,18.236-2.386,23.488-9.046a9.77,9.77,0,0,0,1.749-3.109c1.39-4.518.694-9.637.675-14.277-.021-4.449.084-12.255.084-18.028" transform="translate(-341.83 -252.727)" fill="none" stroke="#19034d" stroke-miterlimit="10" stroke-width="1"/>
              <path id="Tracé_292" data-name="Tracé 292" d="M407.143,351.169c-7.466,1.217-15.728,2.306-22.165-1.358a18.462,18.462,0,0,1-8.025-10.077,37.165,37.165,0,0,1-1.652-12.577,84.422,84.422,0,0,1,1.179-13.8" transform="translate(-360.545 -234.488)" fill="none" stroke="#19034d" stroke-miterlimit="10" stroke-width="1"/>
              <path id="Tracé_293" data-name="Tracé 293" d="M395.979,347.4a135.776,135.776,0,0,0,27.7-7.154,14.26,14.26,0,0,0,5.161-2.849,12.207,12.207,0,0,0,2.735-5.342c1.308-4.316,1.857-33.861.416-41.075" transform="translate(-341.786 -254.786)" fill="none" stroke="#19034d" stroke-miterlimit="10" stroke-width="1"/>
            </g>
          </g>
        </g>
      </g>
      <path id="Tracé_295" data-name="Tracé 295" d="M377.426,343.355l55.917-1.19-5.7,41.641-42.678-.014Z" transform="translate(-358.616 -208.352)" fill="#f5ba00"/>
    </g>
    <g id="Groupe_64" data-name="Groupe 64" transform="translate(418.513 407.125)">
      <rect id="Rectangle_12" data-name="Rectangle 12" width="245.529" height="11.16" rx="2.5" transform="translate(0 228.683)" fill="#fff"/>
      <path id="Tracé_296" data-name="Tracé 296" d="M472.666,426.266H262.851L281.108,305.7a8.516,8.516,0,0,1,8.315-7.308H482.608a8.177,8.177,0,0,1,7.976,9.553Z" transform="translate(-226.371 -186.421)" fill="#fff"/>
      <circle id="Ellipse_4" data-name="Ellipse 4" cx="10.044" cy="10.044" r="10.044" transform="translate(150.482 157.257)" fill="none" stroke="#8054f6" stroke-miterlimit="10" stroke-width="2"/>
      <g id="Groupe_63" data-name="Groupe 63" transform="translate(169.065)">
        <path id="Tracé_297" data-name="Tracé 297" d="M334.22,325.93a73.706,73.706,0,0,1-1.846-16.828c.033-5.538.851-9.541,4.489-13.714a77.35,77.35,0,0,1,8.96-8.822,25.59,25.59,0,0,0,7.533-28.822" transform="translate(-332.372 -223.295)" fill="none" stroke="#fff" stroke-miterlimit="10" stroke-width="2"/>
        <path id="Tracé_298" data-name="Tracé 298" d="M342.691,326.1c-1.112-4.735,1.516-9.585,4.827-13.148s7.4-6.414,10.277-10.333c6.179-8.4,5.882-16.3,4.753-31.9-.8-10.968-.585-23.4,7.327-31.04" transform="translate(-323.247 -239.68)" fill="none" stroke="#fff" stroke-miterlimit="10" stroke-width="2"/>
      </g>
    </g>
    <rect id="Rectangle_13" data-name="Rectangle 13" width="620.519" height="13.393" rx="3" transform="translate(119.414 642.83)" fill="#ff8303"/>
    <path id="Tracé_299" data-name="Tracé 299" d="M463.47,181.7c4.707,29.892,6.637,61.991-7.056,88.976-7.638,15.051-19.672,27.516-26.5,43.013-7.283,16.535-9.856,33.7-11.664,51.629" transform="translate(333.108 114.848)" fill="none" stroke="#addfff" stroke-miterlimit="10" stroke-width="2"/>
    <path id="Tracé_300" data-name="Tracé 300" d="M179.3,155.458c-19.056,23.009-47.357,36.054-70.237,55.264-37,31.063-58.93,79.317-58,127.62" transform="translate(0 91.046)" fill="none" stroke="#addfff" stroke-miterlimit="10" stroke-width="2"/>
    <path id="Tracé_301" data-name="Tracé 301" d="M337.26,55.352a118.15,118.15,0,0,1,70.981,62.914" transform="translate(259.639 0.238)" fill="none" stroke="#addfff" stroke-miterlimit="10" stroke-width="2"/>
    <path id="Tracé_302" data-name="Tracé 302" d="M109.686,389.788a257.3,257.3,0,0,0,152.277,62.95" transform="translate(53.203 303.61)" fill="none" stroke="#addfff" stroke-miterlimit="10" stroke-width="2"/>
    <path id="Tracé_303" data-name="Tracé 303" d="M329.11,402.859a319.639,319.639,0,0,0,29.907-15.31" transform="translate(252.246 301.579)" fill="none" stroke="#69a4c9" stroke-miterlimit="10" stroke-width="2"/>
    <path id="Tracé_304" data-name="Tracé 304" d="M256.13,420.3c40.562-1.785,75.773-3.717,119.505-21.028" transform="translate(186.045 312.209)" fill="none" stroke="#69a4c9" stroke-miterlimit="10" stroke-width="2"/>
  </g>
</svg>
